<svg width="257" height="88" viewBox="0 0 257 88" fill="none" xmlns="http://www.w3.org/2000/svg">
<path d="M18.7067 22.9111C18.294 22.2314 17.7236 21.7096 16.9954 21.3455C16.2915 20.9814 15.454 20.7993 14.4831 20.7993C12.6868 20.7993 11.2668 21.3819 10.223 22.547C9.20354 23.7121 8.69379 25.2778 8.69379 27.244C8.69379 29.4529 9.23995 31.1399 10.3323 32.305C11.4489 33.4459 13.0631 34.0163 15.1749 34.0163C17.6751 34.0163 19.4592 32.8876 20.5272 30.6301H13.3543V25.4963H26.6806V32.4143C26.1223 33.7736 25.297 35.048 24.2047 36.2374C23.1366 37.4268 21.7773 38.4099 20.1267 39.1866C18.4761 39.9391 16.5949 40.3154 14.4831 40.3154C11.9101 40.3154 9.62833 39.7692 7.63789 38.6769C5.67172 37.5603 4.14248 36.0189 3.05016 34.0527C1.98212 32.0623 1.4481 29.7927 1.4481 27.244C1.4481 24.7195 1.98212 22.4742 3.05016 20.508C4.14248 18.5176 5.67172 16.9762 7.63789 15.8839C9.60406 14.7673 11.8736 14.209 14.4467 14.209C17.6751 14.209 20.3452 14.9858 22.457 16.5393C24.5688 18.0928 25.8796 20.2167 26.3893 22.9111H18.7067ZM37.0152 20.1803V24.3675H45.2076V29.7927H37.0152V34.4168H46.2999V40.1333H29.8788V14.4639H46.2999V20.1803H37.0152ZM97.9838 23.0203C97.9838 24.5739 97.6197 25.9939 96.8915 27.2804C96.1876 28.5426 95.1074 29.5621 93.651 30.3389C92.2188 31.0913 90.459 31.4676 88.3714 31.4676H84.8396V40.1333H77.7032V14.4639H88.3714C90.4347 14.4639 92.1824 14.828 93.6146 15.5562C95.071 16.2844 96.1633 17.2918 96.8915 18.5783C97.6197 19.8648 97.9838 21.3455 97.9838 23.0203ZM87.6796 25.7875C89.6944 25.7875 90.7017 24.8651 90.7017 23.0203C90.7017 21.1513 89.6944 20.2167 87.6796 20.2167H84.8396V25.7875H87.6796ZM113.158 40.3882C110.755 40.3882 108.546 39.8299 106.531 38.7133C104.516 37.5724 102.914 36.0068 101.725 34.0163C100.56 32.0016 99.977 29.732 99.977 27.2076C99.977 24.6831 100.56 22.4256 101.725 20.4352C102.914 18.4205 104.516 16.8548 106.531 15.7382C108.546 14.6216 110.755 14.0634 113.158 14.0634C115.585 14.0634 117.794 14.6216 119.784 15.7382C121.799 16.8548 123.389 18.4205 124.554 20.4352C125.719 22.4256 126.302 24.6831 126.302 27.2076C126.302 29.732 125.719 32.0016 124.554 34.0163C123.389 36.0068 121.799 37.5724 119.784 38.7133C117.77 39.8299 115.561 40.3882 113.158 40.3882ZM113.158 33.7615C114.978 33.7615 116.41 33.1668 117.454 31.9773C118.522 30.7879 119.056 29.198 119.056 27.2076C119.056 25.1686 118.522 23.5665 117.454 22.4014C116.41 21.212 114.978 20.6173 113.158 20.6173C111.313 20.6173 109.869 21.212 108.825 22.4014C107.781 23.5665 107.259 25.1686 107.259 27.2076C107.259 29.2223 107.781 30.8243 108.825 32.0137C109.869 33.1789 111.313 33.7615 113.158 33.7615ZM142.509 40.1333L137.411 30.6666H136.646V40.1333H129.51V14.4639H140.761C142.824 14.4639 144.572 14.828 146.004 15.5562C147.436 16.2601 148.516 17.2432 149.244 18.5054C149.973 19.7434 150.337 21.1391 150.337 22.6927C150.337 24.4404 149.851 25.9817 148.88 27.3168C147.934 28.6276 146.538 29.5621 144.693 30.1204L150.482 40.1333H142.509ZM136.646 25.7875H140.178C141.149 25.7875 141.877 25.5569 142.363 25.0957C142.848 24.6345 143.091 23.967 143.091 23.0932C143.091 22.2679 142.836 21.6246 142.326 21.1634C141.841 20.6779 141.125 20.4352 140.178 20.4352H136.646V25.7875ZM172.916 14.4639V20.1439H166.071V40.1333H158.934V20.1439H152.162V14.4639H172.916Z" fill="#FA812F"/>
<path d="M62.1738 28.1783C64.1348 28.1783 65.7245 26.5886 65.7245 24.6277C65.7245 22.6667 64.1348 21.077 62.1738 21.077C60.2129 21.077 58.6232 22.6667 58.6232 24.6277C58.6232 26.5886 60.2129 28.1783 62.1738 28.1783Z" stroke="#FA812F" stroke-width="3.7002"/>
<path d="M52.6371 22.5564C54.879 12.7011 69.48 12.7124 71.7106 22.5678C73.0193 28.349 69.4231 33.2426 66.2708 36.2698C63.9833 38.4776 60.3644 38.4776 58.0655 36.2698C54.9246 33.2426 51.3284 28.3377 52.6371 22.5564Z" stroke="#FA812F" stroke-width="3.7002"/>
<path d="M32.2878 46.8724V72.5419H25.1514V58.3782L20.3088 72.5419H14.3374L9.45842 58.2689V72.5419H2.32195V46.8724H10.9512L17.3959 63.5485L23.6949 46.8724H32.2878ZM52.5893 68.3547H43.4866L42.103 72.5419H34.6025L43.96 46.8724H52.1887L61.5098 72.5419H53.9729L52.5893 68.3547ZM50.8051 62.8931L48.0379 54.5915L45.3072 62.8931H50.8051ZM70.9723 67.0803H78.9462V72.5419H63.8359V46.8724H70.9723V67.0803ZM97.9602 68.3547H88.8576L87.474 72.5419H79.9734L89.3309 46.8724H97.5597L106.881 72.5419H99.3438L97.9602 68.3547ZM96.1761 62.8931L93.4089 54.5915L90.6781 62.8931H96.1761ZM132.546 46.8724L123.516 64.3859V72.5419H116.343V64.3859L107.313 46.8724H115.469L119.984 56.7761L124.499 46.8724H132.546ZM151.122 59.3613C152.627 59.7011 153.816 60.4536 154.69 61.6187C155.588 62.7596 156.037 64.0704 156.037 65.551C156.037 67.7357 155.285 69.447 153.78 70.6849C152.275 71.9229 150.163 72.5419 147.444 72.5419H134.737V46.8724H147.044C149.665 46.8724 151.716 47.455 153.197 48.6201C154.702 49.7853 155.454 51.4238 155.454 53.5356C155.454 55.0405 155.054 56.3028 154.253 57.3223C153.476 58.3175 152.432 58.9971 151.122 59.3613ZM141.873 57.0674H145.478C147.274 57.0674 148.172 56.327 148.172 54.8463C148.172 53.3171 147.274 52.5525 145.478 52.5525H141.873V57.0674ZM146.024 66.789C147.82 66.789 148.718 66.0365 148.718 64.5316C148.718 63.7548 148.476 63.1601 147.99 62.7474C147.529 62.3348 146.862 62.1285 145.988 62.1285H141.873V66.789H146.024ZM175.404 68.3547H166.301L164.917 72.5419H157.417L166.774 46.8724H175.003L184.324 72.5419H176.787L175.404 68.3547ZM173.62 62.8931L170.852 54.5915L168.122 62.8931H173.62ZM193.787 67.0803H201.761V72.5419H186.65V46.8724H193.787V67.0803ZM220.775 68.3547H211.672L210.288 72.5419H202.788L212.145 46.8724H220.374L229.695 72.5419H222.158L220.775 68.3547ZM218.991 62.8931L216.223 54.5915L213.493 62.8931H218.991ZM255.36 46.8724L246.331 64.3859V72.5419H239.158V64.3859L230.128 46.8724H238.284L242.799 56.7761L247.314 46.8724H255.36Z" fill="#FA812F"/>
</svg>
