<svg width="257" height="92" viewBox="0 0 257 92" fill="none" xmlns="http://www.w3.org/2000/svg">
<path d="M19.0202 23.1367C18.6075 22.4571 18.0371 21.9352 17.3089 21.5711C16.6049 21.207 15.7675 21.0249 14.7966 21.0249C13.0003 21.0249 11.5803 21.6075 10.5365 22.7726C9.51703 23.9377 9.00728 25.5034 9.00728 27.4696C9.00728 29.6785 9.55344 31.3655 10.6458 32.5306C11.7623 33.6715 13.3765 34.2419 15.4884 34.2419C17.9885 34.2419 19.7727 33.1132 20.8407 30.8558H13.6678V25.7219H26.9941V32.6399C26.4358 33.9992 25.6105 35.2736 24.5182 36.463C23.4501 37.6524 22.0908 38.6355 20.4402 39.4122C18.7896 40.1647 16.9084 40.541 14.7966 40.541C12.2235 40.541 9.94182 39.9948 7.95138 38.9025C5.98521 37.7859 4.45596 36.2445 3.36365 34.2783C2.29561 32.2879 1.76158 30.0183 1.76158 27.4696C1.76158 24.9451 2.29561 22.6998 3.36365 20.7336C4.45596 18.7432 5.98521 17.2018 7.95138 16.1095C9.91755 14.9929 12.1871 14.4346 14.7601 14.4346C17.9885 14.4346 20.6587 15.2114 22.7705 16.7649C24.8823 18.3184 26.1931 20.4423 26.7028 23.1367H19.0202ZM37.3287 20.4059V24.5931H45.5211V30.0183H37.3287V34.6424H46.6134V40.3589H30.1922V14.6895H46.6134V20.4059H37.3287ZM98.2973 23.2459C98.2973 24.7995 97.9332 26.2195 97.205 27.506C96.5011 28.7682 95.4209 29.7877 93.9645 30.5645C92.5323 31.317 90.7725 31.6932 88.6849 31.6932H85.1531V40.3589H78.0166V14.6895H88.6849C90.7482 14.6895 92.4959 15.0536 93.928 15.7818C95.3845 16.51 96.4768 17.5174 97.205 18.8039C97.9332 20.0904 98.2973 21.5711 98.2973 23.2459ZM87.9931 26.0131C90.0078 26.0131 91.0152 25.0907 91.0152 23.2459C91.0152 21.3769 90.0078 20.4423 87.9931 20.4423H85.1531V26.0131H87.9931ZM113.471 40.6138C111.068 40.6138 108.859 40.0555 106.844 38.9389C104.83 37.798 103.228 36.2324 102.038 34.2419C100.873 32.2272 100.29 29.9576 100.29 27.4332C100.29 24.9087 100.873 22.6512 102.038 20.6608C103.228 18.6461 104.83 17.0804 106.844 15.9638C108.859 14.8472 111.068 14.289 113.471 14.289C115.898 14.289 118.107 14.8472 120.098 15.9638C122.113 17.0804 123.702 18.6461 124.868 20.6608C126.033 22.6512 126.615 24.9087 126.615 27.4332C126.615 29.9576 126.033 32.2272 124.868 34.2419C123.702 36.2324 122.113 37.798 120.098 38.9389C118.083 40.0555 115.874 40.6138 113.471 40.6138ZM113.471 33.9871C115.292 33.9871 116.724 33.3924 117.768 32.2029C118.836 31.0135 119.37 29.4236 119.37 27.4332C119.37 25.3942 118.836 23.7921 117.768 22.627C116.724 21.4376 115.292 20.8429 113.471 20.8429C111.626 20.8429 110.182 21.4376 109.138 22.627C108.094 23.7921 107.573 25.3942 107.573 27.4332C107.573 29.4479 108.094 31.0499 109.138 32.2394C110.182 33.4045 111.626 33.9871 113.471 33.9871ZM142.822 40.3589L137.725 30.8922H136.96V40.3589H129.823V14.6895H141.074C143.138 14.6895 144.885 15.0536 146.317 15.7818C147.75 16.4857 148.83 17.4688 149.558 18.731C150.286 19.969 150.65 21.3647 150.65 22.9183C150.65 24.666 150.165 26.2073 149.194 27.5424C148.247 28.8532 146.851 29.7877 145.007 30.346L150.796 40.3589H142.822ZM136.96 26.0131H140.492C141.463 26.0131 142.191 25.7825 142.676 25.3213C143.162 24.8601 143.405 24.1926 143.405 23.3188C143.405 22.4935 143.15 21.8502 142.64 21.389C142.154 20.9035 141.438 20.6608 140.492 20.6608H136.96V26.0131ZM173.23 14.6895V20.3695H166.384V40.3589H159.248V20.3695H152.476V14.6895H173.23Z" fill="#FA812F"/>
<path d="M62.4874 28.4039C64.4484 28.4039 66.0381 26.8143 66.0381 24.8533C66.0381 22.8923 64.4484 21.3026 62.4874 21.3026C60.5264 21.3026 58.9367 22.8923 58.9367 24.8533C58.9367 26.8143 60.5264 28.4039 62.4874 28.4039Z" stroke="#FA812F" stroke-width="3.7002"/>
<path d="M52.9507 22.7821C55.1926 12.9267 69.7936 12.938 72.0241 22.7934C73.3329 28.5747 69.7367 33.4682 66.5843 36.4954C64.2969 38.7032 60.6779 38.7032 58.3791 36.4954C55.2381 33.4682 51.6419 28.5633 52.9507 22.7821Z" stroke="#FA812F" stroke-width="3.7002"/>
<path d="M32.6013 47.0981V72.7675H25.4648V58.6038L20.6222 72.7675H14.6509L9.7719 58.4946V72.7675H2.63544V47.0981H11.2647L17.7094 63.7741L24.0084 47.0981H32.6013ZM52.9027 68.5803H43.8001L42.4165 72.7675H34.9159L44.2735 47.0981H52.5022L61.8233 72.7675H54.2863L52.9027 68.5803ZM51.1186 63.1187L48.3514 54.8171L45.6206 63.1187H51.1186ZM71.2858 67.3059H79.2597V72.7675H64.1493V47.0981H71.2858V67.3059ZM98.2737 68.5803H89.1711L87.7875 72.7675H80.2869L89.6444 47.0981H97.8732L107.194 72.7675H99.6573L98.2737 68.5803ZM96.4896 63.1187L93.7224 54.8171L90.9916 63.1187H96.4896ZM132.859 47.0981L123.83 64.6115V72.7675H116.657V64.6115L107.627 47.0981H115.783L120.298 57.0017L124.813 47.0981H132.859ZM151.435 59.5869C152.94 59.9267 154.129 60.6792 155.003 61.8443C155.901 62.9852 156.351 64.296 156.351 65.7767C156.351 67.9613 155.598 69.6726 154.093 70.9106C152.588 72.1485 150.476 72.7675 147.758 72.7675H135.05V47.0981H147.357C149.979 47.0981 152.03 47.6806 153.51 48.8458C155.015 50.0109 155.768 51.6494 155.768 53.7612C155.768 55.2662 155.367 56.5284 154.566 57.5479C153.79 58.5431 152.746 59.2228 151.435 59.5869ZM142.187 57.293H145.791C147.588 57.293 148.486 56.5527 148.486 55.072C148.486 53.5427 147.588 52.7781 145.791 52.7781H142.187V57.293ZM146.338 67.0146C148.134 67.0146 149.032 66.2622 149.032 64.7572C149.032 63.9804 148.789 63.3857 148.304 62.9731C147.843 62.5604 147.175 62.3541 146.301 62.3541H142.187V67.0146H146.338ZM175.717 68.5803H166.615L165.231 72.7675H157.73L167.088 47.0981H175.317L184.638 72.7675H177.101L175.717 68.5803ZM173.933 63.1187L171.166 54.8171L168.435 63.1187H173.933ZM194.1 67.3059H202.074V72.7675H186.964V47.0981H194.1V67.3059ZM221.088 68.5803H211.986L210.602 72.7675H203.101L212.459 47.0981H220.688L230.009 72.7675H222.472L221.088 68.5803ZM219.304 63.1187L216.537 54.8171L213.806 63.1187H219.304ZM255.674 47.0981L246.644 64.6115V72.7675H239.471V64.6115L230.441 47.0981H238.597L243.112 57.0017L247.627 47.0981H255.674Z" fill="#FA812F"/>
<path d="M5.04113 81.3739V83.3943H7.41815V84.3154H5.04113V86.425H7.71527V87.3461H3.91205V80.4528H7.71527V81.3739H5.04113ZM15.7121 81.7998C16.1413 81.7998 16.5242 81.8889 16.861 82.0672C17.2043 82.2455 17.4717 82.5096 17.6632 82.8595C17.8613 83.2095 17.9604 83.632 17.9604 84.1273V87.3461H16.8412V84.2956C16.8412 83.807 16.719 83.434 16.4747 83.1765C16.2304 82.9123 15.897 82.7803 15.4744 82.7803C15.0518 82.7803 14.7151 82.9123 14.4642 83.1765C14.2199 83.434 14.0977 83.807 14.0977 84.2956V87.3461H12.9785V84.2956C12.9785 83.807 12.8564 83.434 12.6121 83.1765C12.3678 82.9123 12.0343 82.7803 11.6117 82.7803C11.1892 82.7803 10.8524 82.9123 10.6015 83.1765C10.3572 83.434 10.2351 83.807 10.2351 84.2956V87.3461H9.10597V81.8889H10.2351V82.5129C10.4199 82.2884 10.6543 82.1134 10.9383 81.9879C11.2222 81.8625 11.5259 81.7998 11.8494 81.7998C12.2852 81.7998 12.6748 81.8922 13.0181 82.0771C13.3615 82.262 13.6256 82.5294 13.8105 82.8793C13.9756 82.5492 14.2331 82.2884 14.583 82.0969C14.933 81.8988 15.3093 81.7998 15.7121 81.7998ZM24.3987 84.4838C24.3987 84.6885 24.3855 84.8734 24.3591 85.0385H20.1894C20.2224 85.4742 20.3842 85.8242 20.6747 86.0883C20.9653 86.3524 21.3218 86.4845 21.7444 86.4845C22.3519 86.4845 22.781 86.2303 23.0319 85.7218H24.2502C24.0851 86.2237 23.7847 86.6363 23.3489 86.9599C22.9197 87.2768 22.3849 87.4353 21.7444 87.4353C21.2228 87.4353 20.754 87.3197 20.338 87.0886C19.9286 86.8509 19.6051 86.5208 19.3674 86.0982C19.1363 85.669 19.0207 85.1738 19.0207 84.6126C19.0207 84.0513 19.133 83.5594 19.3575 83.1368C19.5886 82.7077 19.9088 82.3775 20.3182 82.1464C20.7342 81.9153 21.2096 81.7998 21.7444 81.7998C22.2594 81.7998 22.7183 81.912 23.1211 82.1365C23.5239 82.361 23.8375 82.6779 24.062 83.0873C24.2865 83.4901 24.3987 83.9556 24.3987 84.4838ZM23.2201 84.1273C23.2135 83.7113 23.065 83.3778 22.7744 83.1269C22.4839 82.876 22.1241 82.7506 21.6949 82.7506C21.3053 82.7506 20.9719 82.876 20.6945 83.1269C20.4172 83.3712 20.2522 83.7047 20.1993 84.1273H23.2201ZM26.6389 82.6812C26.804 82.4039 27.0219 82.1893 27.2926 82.0375C27.5699 81.879 27.8968 81.7998 28.2731 81.7998V82.9685H27.9859C27.5435 82.9685 27.2068 83.0807 26.9757 83.3052C26.7512 83.5297 26.6389 83.9193 26.6389 84.4739V87.3461H25.5099V81.8889H26.6389V82.6812ZM31.5097 81.7998C31.9323 81.7998 32.3054 81.8856 32.6289 82.0573C32.9591 82.2223 33.2166 82.4303 33.4015 82.6812V81.8889H34.5404V87.4353C34.5404 87.9371 34.4348 88.3828 34.2235 88.7723C34.0122 89.1685 33.7052 89.4789 33.3024 89.7033C32.9062 89.9278 32.4308 90.0401 31.8762 90.0401C31.1367 90.0401 30.5226 89.8651 30.034 89.5152C29.5454 89.1718 29.2681 88.703 29.2021 88.1088H30.3212C30.4071 88.3927 30.5886 88.6205 30.866 88.7922C31.1499 88.9704 31.4866 89.0596 31.8762 89.0596C32.3318 89.0596 32.6982 88.9209 32.9756 88.6436C33.2595 88.3663 33.4015 87.9635 33.4015 87.4353V86.5241C33.21 86.7816 32.9492 86.9995 32.619 87.1778C32.2955 87.3494 31.9257 87.4353 31.5097 87.4353C31.0343 87.4353 30.5986 87.3164 30.2024 87.0787C29.8128 86.8344 29.5025 86.4977 29.2714 86.0685C29.0469 85.6327 28.9346 85.1408 28.9346 84.5928C28.9346 84.0447 29.0469 83.5594 29.2714 83.1368C29.5025 82.7143 29.8128 82.3874 30.2024 82.1563C30.5986 81.9186 31.0343 81.7998 31.5097 81.7998ZM33.4015 84.6126C33.4015 84.2362 33.3222 83.9094 33.1637 83.632C33.0119 83.3547 32.8105 83.1434 32.5596 82.9982C32.3087 82.8529 32.038 82.7803 31.7474 82.7803C31.4569 82.7803 31.1862 82.8529 30.9353 82.9982C30.6844 83.1368 30.4797 83.3448 30.3212 83.6221C30.1694 83.8929 30.0934 84.2164 30.0934 84.5928C30.0934 84.9691 30.1694 85.2993 30.3212 85.5832C30.4797 85.8671 30.6844 86.085 30.9353 86.2369C31.1928 86.3821 31.4635 86.4548 31.7474 86.4548C32.038 86.4548 32.3087 86.3821 32.5596 86.2369C32.8105 86.0916 33.0119 85.8803 33.1637 85.603C33.3222 85.3191 33.4015 84.9889 33.4015 84.6126ZM41.0251 84.4838C41.0251 84.6885 41.0119 84.8734 40.9855 85.0385H36.8158C36.8488 85.4742 37.0106 85.8242 37.3011 86.0883C37.5916 86.3524 37.9482 86.4845 38.3707 86.4845C38.9782 86.4845 39.4074 86.2303 39.6583 85.7218H40.8765C40.7114 86.2237 40.411 86.6363 39.9752 86.9599C39.546 87.2768 39.0112 87.4353 38.3707 87.4353C37.8491 87.4353 37.3803 87.3197 36.9643 87.0886C36.555 86.8509 36.2314 86.5208 35.9937 86.0982C35.7626 85.669 35.6471 85.1738 35.6471 84.6126C35.6471 84.0513 35.7593 83.5594 35.9838 83.1368C36.2149 82.7077 36.5352 82.3775 36.9445 82.1464C37.3605 81.9153 37.8359 81.7998 38.3707 81.7998C38.8858 81.7998 39.3447 81.912 39.7474 82.1365C40.1502 82.361 40.4638 82.6779 40.6883 83.0873C40.9128 83.4901 41.0251 83.9556 41.0251 84.4838ZM39.8465 84.1273C39.8399 83.7113 39.6913 83.3778 39.4008 83.1269C39.1103 82.876 38.7504 82.7506 38.3212 82.7506C37.9317 82.7506 37.5982 82.876 37.3209 83.1269C37.0436 83.3712 36.8785 83.7047 36.8257 84.1273H39.8465ZM44.8896 81.7998C45.3188 81.7998 45.7017 81.8889 46.0385 82.0672C46.3818 82.2455 46.6492 82.5096 46.8407 82.8595C47.0322 83.2095 47.1279 83.632 47.1279 84.1273V87.3461H46.0088V84.2956C46.0088 83.807 45.8866 83.434 45.6423 83.1765C45.398 82.9123 45.0646 82.7803 44.642 82.7803C44.2194 82.7803 43.8827 82.9123 43.6318 83.1765C43.3874 83.434 43.2653 83.807 43.2653 84.2956V87.3461H42.1362V81.8889H43.2653V82.5129C43.4502 82.2884 43.6846 82.1134 43.9685 81.9879C44.259 81.8625 44.5661 81.7998 44.8896 81.7998ZM48.1918 84.6126C48.1918 84.0513 48.3041 83.5594 48.5285 83.1368C48.7596 82.7077 49.0766 82.3775 49.4794 82.1464C49.8821 81.9153 50.3443 81.7998 50.8659 81.7998C51.5262 81.7998 52.071 81.9582 52.5001 82.2752C52.9359 82.5855 53.2298 83.0312 53.3816 83.6122H52.1634C52.0644 83.3415 51.9059 83.1302 51.688 82.9784C51.4701 82.8265 51.1961 82.7506 50.8659 82.7506C50.4038 82.7506 50.034 82.9156 49.7567 83.2458C49.486 83.5693 49.3506 84.0249 49.3506 84.6126C49.3506 85.2002 49.486 85.6591 49.7567 85.9893C50.034 86.3194 50.4038 86.4845 50.8659 86.4845C51.5196 86.4845 51.9521 86.1972 52.1634 85.6228H53.3816C53.2232 86.1774 52.926 86.6198 52.4902 86.95C52.0545 87.2735 51.513 87.4353 50.8659 87.4353C50.3443 87.4353 49.8821 87.3197 49.4794 87.0886C49.0766 86.8509 48.7596 86.5208 48.5285 86.0982C48.3041 85.669 48.1918 85.1738 48.1918 84.6126ZM59.4193 81.8889L56.0717 89.9113H54.903L56.0123 87.257L53.8631 81.8889H55.1209L56.6561 86.0487L58.2506 81.8889H59.4193ZM66.4196 87.3461L64.8349 84.5928H63.9733V87.3461H62.8442V80.4627H65.2212C65.7494 80.4627 66.1951 80.5551 66.5583 80.74C66.928 80.9249 67.2021 81.1725 67.3803 81.4828C67.5652 81.7932 67.6577 82.1398 67.6577 82.5228C67.6577 82.9718 67.5256 83.3811 67.2615 83.7509C67.004 84.1141 66.6045 84.3617 66.0631 84.4937L67.7666 87.3461H66.4196ZM63.9733 83.6915H65.2212C65.6438 83.6915 65.9607 83.5858 66.172 83.3745C66.3899 83.1632 66.4989 82.8793 66.4989 82.5228C66.4989 82.1662 66.3932 81.8889 66.1819 81.6908C65.9706 81.4861 65.6504 81.3838 65.2212 81.3838H63.9733V83.6915ZM74.1037 84.4838C74.1037 84.6885 74.0905 84.8734 74.0641 85.0385H69.8944C69.9274 85.4742 70.0892 85.8242 70.3797 86.0883C70.6702 86.3524 71.0268 86.4845 71.4494 86.4845C72.0568 86.4845 72.486 86.2303 72.7369 85.7218H73.9551C73.7901 86.2237 73.4896 86.6363 73.0538 86.9599C72.6247 87.2768 72.0898 87.4353 71.4494 87.4353C70.9277 87.4353 70.4589 87.3197 70.043 87.0886C69.6336 86.8509 69.31 86.5208 69.0723 86.0982C68.8412 85.669 68.7257 85.1738 68.7257 84.6126C68.7257 84.0513 68.8379 83.5594 69.0624 83.1368C69.2935 82.7077 69.6138 82.3775 70.0231 82.1464C70.4391 81.9153 70.9145 81.7998 71.4494 81.7998C71.9644 81.7998 72.4233 81.912 72.826 82.1365C73.2288 82.361 73.5425 82.6779 73.7669 83.0873C73.9914 83.4901 74.1037 83.9556 74.1037 84.4838ZM72.9251 84.1273C72.9185 83.7113 72.7699 83.3778 72.4794 83.1269C72.1889 82.876 71.829 82.7506 71.3998 82.7506C71.0103 82.7506 70.6768 82.876 70.3995 83.1269C70.1222 83.3712 69.9571 83.7047 69.9043 84.1273H72.9251ZM77.1957 87.4353C76.7665 87.4353 76.3802 87.3593 76.0369 87.2075C75.7001 87.049 75.4327 86.8377 75.2346 86.5736C75.0365 86.3029 74.9309 86.0025 74.9177 85.6723H76.0864C76.1062 85.9034 76.2151 86.0982 76.4132 86.2567C76.6179 86.4085 76.8721 86.4845 77.1759 86.4845C77.4928 86.4845 77.7371 86.425 77.9088 86.3062C78.0871 86.1807 78.1762 86.0223 78.1762 85.8308C78.1762 85.6261 78.0771 85.4742 77.8791 85.3752C77.6876 85.2762 77.3805 85.1672 76.958 85.0484C76.5486 84.9361 76.2151 84.8272 75.9576 84.7215C75.7001 84.6159 75.4756 84.4541 75.2842 84.2362C75.0993 84.0183 75.0068 83.7311 75.0068 83.3745C75.0068 83.084 75.0927 82.8199 75.2643 82.5822C75.436 82.3379 75.6803 82.1464 75.9973 82.0078C76.3208 81.8691 76.6906 81.7998 77.1065 81.7998C77.7272 81.7998 78.2257 81.9582 78.6021 82.2752C78.985 82.5855 79.1897 83.0114 79.2161 83.5528H78.0871C78.0672 83.3085 77.9682 83.1137 77.7899 82.9685C77.6116 82.8232 77.3706 82.7506 77.0669 82.7506C76.7698 82.7506 76.542 82.8067 76.3835 82.9189C76.2251 83.0312 76.1458 83.1798 76.1458 83.3646C76.1458 83.5099 76.1986 83.632 76.3043 83.7311C76.4099 83.8301 76.5387 83.9094 76.6906 83.9688C76.8424 84.0216 77.0669 84.0909 77.364 84.1768C77.7602 84.2824 78.0837 84.3914 78.3347 84.5036C78.5922 84.6093 78.8134 84.7677 78.9982 84.979C79.1831 85.1903 79.2789 85.4709 79.2855 85.8209C79.2855 86.1312 79.1996 86.4085 79.028 86.6528C78.8563 86.8971 78.612 87.0886 78.295 87.2273C77.9847 87.3659 77.6183 87.4353 77.1957 87.4353ZM81.6345 82.6911C81.826 82.4402 82.0868 82.2289 82.417 82.0573C82.7471 81.8856 83.1202 81.7998 83.5362 81.7998C84.0116 81.7998 84.444 81.9186 84.8336 82.1563C85.2298 82.3874 85.5401 82.7143 85.7646 83.1368C85.9891 83.5594 86.1014 84.0447 86.1014 84.5928C86.1014 85.1408 85.9891 85.6327 85.7646 86.0685C85.5401 86.4977 85.2298 86.8344 84.8336 87.0787C84.444 87.3164 84.0116 87.4353 83.5362 87.4353C83.1202 87.4353 82.7504 87.3527 82.4269 87.1877C82.1033 87.016 81.8392 86.8047 81.6345 86.5538V89.941H80.5055V81.8889H81.6345V82.6911ZM84.9525 84.5928C84.9525 84.2164 84.8732 83.8929 84.7148 83.6221C84.5629 83.3448 84.3582 83.1368 84.1007 82.9982C83.8498 82.8529 83.5791 82.7803 83.2886 82.7803C83.0046 82.7803 82.7339 82.8529 82.4764 82.9982C82.2255 83.1434 82.0208 83.3547 81.8623 83.632C81.7105 83.9094 81.6345 84.2362 81.6345 84.6126C81.6345 84.9889 81.7105 85.3191 81.8623 85.603C82.0208 85.8803 82.2255 86.0916 82.4764 86.2369C82.7339 86.3821 83.0046 86.4548 83.2886 86.4548C83.5791 86.4548 83.8498 86.3821 84.1007 86.2369C84.3582 86.085 84.5629 85.8671 84.7148 85.5832C84.8732 85.2993 84.9525 84.9691 84.9525 84.5928ZM89.585 87.4353C89.07 87.4353 88.6045 87.3197 88.1885 87.0886C87.7725 86.8509 87.4457 86.5208 87.208 86.0982C86.9703 85.669 86.8514 85.1738 86.8514 84.6126C86.8514 84.0579 86.9736 83.566 87.2179 83.1368C87.4622 82.7077 87.7957 82.3775 88.2182 82.1464C88.6408 81.9153 89.1129 81.7998 89.6345 81.7998C90.1562 81.7998 90.6283 81.9153 91.0508 82.1464C91.4734 82.3775 91.8069 82.7077 92.0512 83.1368C92.2955 83.566 92.4176 84.0579 92.4176 84.6126C92.4176 85.1672 92.2922 85.6591 92.0413 86.0883C91.7904 86.5175 91.447 86.8509 91.0112 87.0886C90.582 87.3197 90.1066 87.4353 89.585 87.4353ZM89.585 86.4548C89.8755 86.4548 90.1463 86.3854 90.3972 86.2468C90.6547 86.1081 90.8627 85.9001 91.0211 85.6228C91.1796 85.3455 91.2588 85.0087 91.2588 84.6126C91.2588 84.2164 91.1829 83.883 91.031 83.6122C90.8792 83.3349 90.6778 83.1269 90.4269 82.9883C90.176 82.8496 89.9053 82.7803 89.6147 82.7803C89.3242 82.7803 89.0535 82.8496 88.8026 82.9883C88.5583 83.1269 88.3635 83.3349 88.2182 83.6122C88.073 83.883 88.0003 84.2164 88.0003 84.6126C88.0003 85.2002 88.1489 85.6558 88.446 85.9794C88.7498 86.2963 89.1294 86.4548 89.585 86.4548ZM96.2872 81.7998C96.7164 81.7998 97.0993 81.8889 97.4361 82.0672C97.7794 82.2455 98.0468 82.5096 98.2383 82.8595C98.4298 83.2095 98.5255 83.632 98.5255 84.1273V87.3461H97.4063V84.2956C97.4063 83.807 97.2842 83.434 97.0399 83.1765C96.7956 82.9123 96.4621 82.7803 96.0396 82.7803C95.617 82.7803 95.2802 82.9123 95.0293 83.1765C94.785 83.434 94.6629 83.807 94.6629 84.2956V87.3461H93.5338V81.8889H94.6629V82.5129C94.8478 82.2884 95.0822 82.1134 95.3661 81.9879C95.6566 81.8625 95.9636 81.7998 96.2872 81.7998ZM99.5894 84.5928C99.5894 84.0447 99.7016 83.5594 99.9261 83.1368C100.157 82.7143 100.468 82.3874 100.857 82.1563C101.253 81.9186 101.692 81.7998 102.174 81.7998C102.531 81.7998 102.881 81.879 103.224 82.0375C103.574 82.1893 103.852 82.394 104.056 82.6515V80.017H105.195V87.3461H104.056V86.5241C103.871 86.7882 103.614 87.0061 103.284 87.1778C102.96 87.3494 102.587 87.4353 102.164 87.4353C101.689 87.4353 101.253 87.3164 100.857 87.0787C100.468 86.8344 100.157 86.4977 99.9261 86.0685C99.7016 85.6327 99.5894 85.1408 99.5894 84.5928ZM104.056 84.6126C104.056 84.2362 103.977 83.9094 103.818 83.632C103.667 83.3547 103.465 83.1434 103.214 82.9982C102.963 82.8529 102.693 82.7803 102.402 82.7803C102.112 82.7803 101.841 82.8529 101.59 82.9982C101.339 83.1368 101.134 83.3448 100.976 83.6221C100.824 83.8929 100.748 84.2164 100.748 84.5928C100.748 84.9691 100.824 85.2993 100.976 85.5832C101.134 85.8671 101.339 86.085 101.59 86.2369C101.848 86.3821 102.118 86.4548 102.402 86.4548C102.693 86.4548 102.963 86.3821 103.214 86.2369C103.465 86.0916 103.667 85.8803 103.818 85.603C103.977 85.3191 104.056 84.9889 104.056 84.6126ZM111.68 84.4838C111.68 84.6885 111.667 84.8734 111.64 85.0385H107.471C107.504 85.4742 107.665 85.8242 107.956 86.0883C108.246 86.3524 108.603 86.4845 109.025 86.4845C109.633 86.4845 110.062 86.2303 110.313 85.7218H111.531C111.366 86.2237 111.066 86.6363 110.63 86.9599C110.201 87.2768 109.666 87.4353 109.025 87.4353C108.504 87.4353 108.035 87.3197 107.619 87.0886C107.21 86.8509 106.886 86.5208 106.648 86.0982C106.417 85.669 106.302 85.1738 106.302 84.6126C106.302 84.0513 106.414 83.5594 106.639 83.1368C106.87 82.7077 107.19 82.3775 107.599 82.1464C108.015 81.9153 108.491 81.7998 109.025 81.7998C109.541 81.7998 109.999 81.912 110.402 82.1365C110.805 82.361 111.119 82.6779 111.343 83.0873C111.568 83.4901 111.68 83.9556 111.68 84.4838ZM110.501 84.1273C110.495 83.7113 110.346 83.3778 110.056 83.1269C109.765 82.876 109.405 82.7506 108.976 82.7506C108.586 82.7506 108.253 82.876 107.976 83.1269C107.698 83.3712 107.533 83.7047 107.48 84.1273H110.501ZM113.92 82.6812C114.085 82.4039 114.303 82.1893 114.574 82.0375C114.851 81.879 115.178 81.7998 115.554 81.7998V82.9685H115.267C114.825 82.9685 114.488 83.0807 114.257 83.3052C114.032 83.5297 113.92 83.9193 113.92 84.4739V87.3461H112.791V81.8889H113.92V82.6812ZM120.294 86.4349H122.621V87.3461H119.165V80.4627H120.294V86.4349ZM125.933 87.4353C125.418 87.4353 124.952 87.3197 124.536 87.0886C124.12 86.8509 123.793 86.5208 123.556 86.0982C123.318 85.669 123.199 85.1738 123.199 84.6126C123.199 84.0579 123.321 83.566 123.566 83.1368C123.81 82.7077 124.143 82.3775 124.566 82.1464C124.989 81.9153 125.461 81.7998 125.982 81.7998C126.504 81.7998 126.976 81.9153 127.399 82.1464C127.821 82.3775 128.155 82.7077 128.399 83.1368C128.643 83.566 128.765 84.0579 128.765 84.6126C128.765 85.1672 128.64 85.6591 128.389 86.0883C128.138 86.5175 127.795 86.8509 127.359 87.0886C126.93 87.3197 126.454 87.4353 125.933 87.4353ZM125.933 86.4548C126.223 86.4548 126.494 86.3854 126.745 86.2468C127.002 86.1081 127.21 85.9001 127.369 85.6228C127.527 85.3455 127.607 85.0087 127.607 84.6126C127.607 84.2164 127.531 83.883 127.379 83.6122C127.227 83.3349 127.026 83.1269 126.775 82.9883C126.524 82.8496 126.253 82.7803 125.963 82.7803C125.672 82.7803 125.401 82.8496 125.15 82.9883C124.906 83.1269 124.711 83.3349 124.566 83.6122C124.421 83.883 124.348 84.2164 124.348 84.6126C124.348 85.2002 124.497 85.6558 124.794 85.9794C125.098 86.2963 125.477 86.4548 125.933 86.4548ZM132.08 81.7998C132.503 81.7998 132.876 81.8856 133.199 82.0573C133.53 82.2223 133.787 82.4303 133.972 82.6812V81.8889H135.111V87.4353C135.111 87.9371 135.005 88.3828 134.794 88.7723C134.583 89.1685 134.276 89.4789 133.873 89.7033C133.477 89.9278 133.001 90.0401 132.447 90.0401C131.707 90.0401 131.093 89.8651 130.605 89.5152C130.116 89.1718 129.839 88.703 129.773 88.1088H130.892C130.978 88.3927 131.159 88.6205 131.437 88.7922C131.72 88.9704 132.057 89.0596 132.447 89.0596C132.902 89.0596 133.269 88.9209 133.546 88.6436C133.83 88.3663 133.972 87.9635 133.972 87.4353V86.5241C133.781 86.7816 133.52 86.9995 133.19 87.1778C132.866 87.3494 132.496 87.4353 132.08 87.4353C131.605 87.4353 131.169 87.3164 130.773 87.0787C130.383 86.8344 130.073 86.4977 129.842 86.0685C129.617 85.6327 129.505 85.1408 129.505 84.5928C129.505 84.0447 129.617 83.5594 129.842 83.1368C130.073 82.7143 130.383 82.3874 130.773 82.1563C131.169 81.9186 131.605 81.7998 132.08 81.7998ZM133.972 84.6126C133.972 84.2362 133.893 83.9094 133.734 83.632C133.582 83.3547 133.381 83.1434 133.13 82.9982C132.879 82.8529 132.609 82.7803 132.318 82.7803C132.027 82.7803 131.757 82.8529 131.506 82.9982C131.255 83.1368 131.05 83.3448 130.892 83.6221C130.74 83.8929 130.664 84.2164 130.664 84.5928C130.664 84.9691 130.74 85.2993 130.892 85.5832C131.05 85.8671 131.255 86.085 131.506 86.2369C131.763 86.3821 132.034 86.4548 132.318 86.4548C132.609 86.4548 132.879 86.3821 133.13 86.2369C133.381 86.0916 133.582 85.8803 133.734 85.603C133.893 85.3191 133.972 84.9889 133.972 84.6126ZM137.168 81.1659C136.964 81.1659 136.792 81.0966 136.653 80.9579C136.515 80.8192 136.445 80.6476 136.445 80.4429C136.445 80.2382 136.515 80.0665 136.653 79.9279C136.792 79.7892 136.964 79.7199 137.168 79.7199C137.367 79.7199 137.535 79.7892 137.674 79.9279C137.812 80.0665 137.882 80.2382 137.882 80.4429C137.882 80.6476 137.812 80.8192 137.674 80.9579C137.535 81.0966 137.367 81.1659 137.168 81.1659ZM137.723 81.8889V87.3461H136.594V81.8889H137.723ZM141.959 81.7998C142.388 81.7998 142.771 81.8889 143.108 82.0672C143.451 82.2455 143.719 82.5096 143.91 82.8595C144.101 83.2095 144.197 83.632 144.197 84.1273V87.3461H143.078V84.2956C143.078 83.807 142.956 83.434 142.712 83.1765C142.467 82.9123 142.134 82.7803 141.711 82.7803C141.289 82.7803 140.952 82.9123 140.701 83.1765C140.457 83.434 140.335 83.807 140.335 84.2956V87.3461H139.205V81.8889H140.335V82.5129C140.519 82.2884 140.754 82.1134 141.038 81.9879C141.328 81.8625 141.635 81.7998 141.959 81.7998ZM153.024 82.5129C153.024 82.8628 152.941 83.193 152.776 83.5033C152.611 83.8136 152.347 84.0678 151.984 84.2659C151.621 84.4574 151.155 84.5531 150.587 84.5531H149.339V87.3461H148.21V80.4627H150.587C151.115 80.4627 151.561 80.5551 151.924 80.74C152.294 80.9183 152.568 81.1626 152.746 81.4729C152.931 81.7833 153.024 82.1299 153.024 82.5129ZM150.587 83.632C151.016 83.632 151.337 83.5363 151.548 83.3448C151.759 83.1467 151.865 82.8694 151.865 82.5129C151.865 81.7601 151.439 81.3838 150.587 81.3838H149.339V83.632H150.587ZM153.724 84.5928C153.724 84.0447 153.836 83.5594 154.061 83.1368C154.292 82.7143 154.602 82.3874 154.992 82.1563C155.388 81.9186 155.824 81.7998 156.299 81.7998C156.728 81.7998 157.102 81.8856 157.418 82.0573C157.742 82.2223 157.999 82.4303 158.191 82.6812V81.8889H159.33V87.3461H158.191V86.534C157.999 86.7915 157.739 87.0061 157.409 87.1778C157.078 87.3494 156.702 87.4353 156.279 87.4353C155.811 87.4353 155.381 87.3164 154.992 87.0787C154.602 86.8344 154.292 86.4977 154.061 86.0685C153.836 85.6327 153.724 85.1408 153.724 84.5928ZM158.191 84.6126C158.191 84.2362 158.112 83.9094 157.953 83.632C157.801 83.3547 157.6 83.1434 157.349 82.9982C157.098 82.8529 156.827 82.7803 156.537 82.7803C156.246 82.7803 155.976 82.8529 155.725 82.9982C155.474 83.1368 155.269 83.3448 155.111 83.6221C154.959 83.8929 154.883 84.2164 154.883 84.5928C154.883 84.9691 154.959 85.2993 155.111 85.5832C155.269 85.8671 155.474 86.085 155.725 86.2369C155.982 86.3821 156.253 86.4548 156.537 86.4548C156.827 86.4548 157.098 86.3821 157.349 86.2369C157.6 86.0916 157.801 85.8803 157.953 85.603C158.112 85.3191 158.191 84.9889 158.191 84.6126ZM163.012 81.7998C163.434 81.7998 163.807 81.8856 164.131 82.0573C164.461 82.2223 164.719 82.4303 164.903 82.6812V81.8889H166.042V87.4353C166.042 87.9371 165.937 88.3828 165.725 88.7723C165.514 89.1685 165.207 89.4789 164.804 89.7033C164.408 89.9278 163.933 90.0401 163.378 90.0401C162.639 90.0401 162.025 89.8651 161.536 89.5152C161.047 89.1718 160.77 88.703 160.704 88.1088H161.823C161.909 88.3927 162.091 88.6205 162.368 88.7922C162.652 88.9704 162.989 89.0596 163.378 89.0596C163.834 89.0596 164.2 88.9209 164.478 88.6436C164.761 88.3663 164.903 87.9635 164.903 87.4353V86.5241C164.712 86.7816 164.451 86.9995 164.121 87.1778C163.797 87.3494 163.428 87.4353 163.012 87.4353C162.536 87.4353 162.101 87.3164 161.704 87.0787C161.315 86.8344 161.004 86.4977 160.773 86.0685C160.549 85.6327 160.437 85.1408 160.437 84.5928C160.437 84.0447 160.549 83.5594 160.773 83.1368C161.004 82.7143 161.315 82.3874 161.704 82.1563C162.101 81.9186 162.536 81.7998 163.012 81.7998ZM164.903 84.6126C164.903 84.2362 164.824 83.9094 164.666 83.632C164.514 83.3547 164.312 83.1434 164.062 82.9982C163.811 82.8529 163.54 82.7803 163.249 82.7803C162.959 82.7803 162.688 82.8529 162.437 82.9982C162.186 83.1368 161.982 83.3448 161.823 83.6221C161.671 83.8929 161.595 84.2164 161.595 84.5928C161.595 84.9691 161.671 85.2993 161.823 85.5832C161.982 85.8671 162.186 86.085 162.437 86.2369C162.695 86.3821 162.965 86.4548 163.249 86.4548C163.54 86.4548 163.811 86.3821 164.062 86.2369C164.312 86.0916 164.514 85.8803 164.666 85.603C164.824 85.3191 164.903 84.9889 164.903 84.6126ZM172.527 84.4838C172.527 84.6885 172.514 84.8734 172.487 85.0385H168.318C168.351 85.4742 168.513 85.8242 168.803 86.0883C169.094 86.3524 169.45 86.4845 169.873 86.4845C170.48 86.4845 170.909 86.2303 171.16 85.7218H172.378C172.213 86.2237 171.913 86.6363 171.477 86.9599C171.048 87.2768 170.513 87.4353 169.873 87.4353C169.351 87.4353 168.882 87.3197 168.466 87.0886C168.057 86.8509 167.733 86.5208 167.496 86.0982C167.265 85.669 167.149 85.1738 167.149 84.6126C167.149 84.0513 167.261 83.5594 167.486 83.1368C167.717 82.7077 168.037 82.3775 168.447 82.1464C168.862 81.9153 169.338 81.7998 169.873 81.7998C170.388 81.7998 170.847 81.912 171.249 82.1365C171.652 82.361 171.966 82.6779 172.19 83.0873C172.415 83.4901 172.527 83.9556 172.527 84.4838ZM171.348 84.1273C171.342 83.7113 171.193 83.3778 170.903 83.1269C170.612 82.876 170.252 82.7506 169.823 82.7506C169.434 82.7506 169.1 82.876 168.823 83.1269C168.546 83.3712 168.38 83.7047 168.328 84.1273H171.348Z" fill="black"/>
</svg>
