<svg width="129" height="122" viewBox="0 0 129 122" fill="none" xmlns="http://www.w3.org/2000/svg">
<g clip-path="url(#clip0_1163_598)">
<path d="M20.4482 25.2726L16.9882 26.3352L18.405 30.9486L21.865 29.886L20.4482 25.2726Z" fill="#B7D6CA"/>
<path d="M40.0552 19.2511L36.5951 20.3137L38.0119 24.9271L41.472 23.8645L40.0552 19.2511Z" fill="#96B5A5"/>
<path d="M38.9925 15.7911L27.4591 19.3331L28.5217 22.7931L40.0552 19.2511L38.9925 15.7911Z" fill="#D5310E"/>
<path d="M27.4591 19.3331L15.9256 22.8752L16.9882 26.3352L28.5217 22.7932L27.4591 19.3331Z" fill="#F46A1A"/>
<path d="M12.729 28.9054L8.11562 30.3222L9.17823 33.7822L13.7916 32.3654L12.729 28.9054Z" fill="#B7D6CA"/>
<path d="M48.4828 17.925L43.8694 19.3418L44.932 22.8019L49.5454 21.3851L48.4828 17.925Z" fill="#B7D6CA"/>
<path d="M50.6988 21.0309L29.9385 27.4065L32.7721 36.6333L36.6166 35.4527L38.978 43.1417L46.667 40.7803L49.0284 48.4693L41.3394 50.8307L43.7007 58.5196L39.8562 59.7003L42.6899 68.9271L63.4502 62.5514C66.6219 61.5773 68.4199 58.1854 67.4459 55.0136L58.2366 25.0266C57.2625 21.8549 53.8705 20.0568 50.6988 21.0309Z" fill="#D5310E"/>
<path d="M36.0118 60.881L33.6504 53.192L25.9614 55.5533L23.6 47.8643L31.289 45.5029L28.9277 37.814L32.7721 36.6333L29.9385 27.4065L9.17823 33.7822C6.00652 34.7563 4.20844 38.1483 5.18251 41.32L14.3918 71.3071C15.3659 74.4788 17.6045 76.6311 20.7762 75.657L42.6899 68.9271L39.8562 59.7003L36.0118 60.881Z" fill="#F46A1A"/>
<path d="M43.7007 58.5196L41.3393 50.8306L49.0284 48.4692L46.667 40.7803L38.978 43.1417L36.6166 35.4527L32.7722 36.6333L39.8562 59.7003L43.7007 58.5196Z" fill="#FFF6D6"/>
<path d="M31.289 45.503L23.6 47.8644L25.9613 55.5533L33.6504 53.192L36.0118 60.881L39.8562 59.7003L32.7721 36.6333L28.9277 37.814L31.289 45.503Z" fill="white"/>
</g>
<g clip-path="url(#clip1_1163_598)">
<path d="M124.565 13.3277L128.525 9.30863L92.0052 3.03232C98.7284 4.18776 103.242 10.5746 102.087 17.2978L97.9023 41.6446L122.249 45.8288L119.858 40.7174L123.818 36.6976L121.427 31.5868L125.387 27.5675L122.996 22.4568L126.957 18.4377L124.565 13.3277ZM112.468 15.2329L109.292 14.6871L109.838 11.5115L113.014 12.0572L112.468 15.2329ZM118.035 20.8892L114.859 20.3435L115.405 17.1678L118.58 17.7136L118.035 20.8892Z" fill="#FFCC99"/>
<path d="M118.58 17.7136L115.405 17.1678L114.859 20.3435L118.035 20.8892L118.58 17.7136Z" fill="#FFB76E"/>
<path d="M113.014 12.0572L109.838 11.5115L109.292 14.6871L112.468 15.2329L113.014 12.0572Z" fill="#FFB76E"/>
<path d="M87.821 27.3791L83.6368 51.7259C90.36 52.8814 96.7469 48.3678 97.9023 41.6446L102.087 17.2978C100.931 24.021 94.5442 28.5346 87.821 27.3791Z" fill="#FFB76E"/>
<path d="M98.9108 16.7521C98.0582 21.7135 93.3282 25.0561 88.3668 24.2035L87.821 27.3791C94.5442 28.5346 100.931 24.021 102.087 17.2978C103.242 10.5746 98.7284 4.18776 92.0052 3.03232L91.4595 6.20799C96.4209 7.06066 99.7635 11.7906 98.9108 16.7521Z" fill="#FF926E"/>
<path d="M77.7397 13.1136L73.5555 37.4604C72.4001 44.1836 76.9136 50.5705 83.6368 51.7259L87.821 27.3791C81.0978 26.2237 76.5843 19.8368 77.7397 13.1136Z" fill="#FFCC99"/>
<path d="M87.821 27.3791L88.3668 24.2035C83.4053 23.3508 80.0627 18.6208 80.9154 13.6594C81.7681 8.69793 86.498 5.35532 91.4595 6.20799L92.0052 3.03232C85.282 1.87688 78.8952 6.39041 77.7397 13.1136C76.5843 19.8368 81.0978 26.2237 87.821 27.3791Z" fill="#FFB76E"/>
<path d="M98.9108 16.7521C99.7635 11.7906 96.4209 7.06066 91.4594 6.20799L90.9137 9.38366C94.1243 9.93543 96.2869 12.9957 95.7352 16.2063C95.1834 19.4169 92.1231 21.5796 88.9125 21.0278L88.3668 24.2035C93.3282 25.0561 98.0582 21.7135 98.9108 16.7521Z" fill="#FFB76E"/>
<path d="M92.5595 15.6605C92.3086 17.1203 90.9181 18.103 89.4583 17.8521L88.9126 21.0278C92.1232 21.5795 95.1834 19.4169 95.7352 16.2063C96.287 12.9957 94.1243 9.93542 90.9137 9.38365L90.3679 12.5593C91.8277 12.8102 92.8104 14.2008 92.5595 15.6605Z" fill="#FF926E"/>
<path d="M92.5595 15.6605C92.8104 14.2008 91.8277 12.8102 90.3679 12.5593L89.4583 17.8521C90.9181 18.103 92.3086 17.1203 92.5595 15.6605Z" fill="#FFB76E"/>
<path d="M84.0911 14.2052C84.6428 10.9945 87.7031 8.83189 90.9137 9.38366L91.4595 6.20799C86.498 5.35532 81.7681 8.69793 80.9154 13.6594C80.0627 18.6208 83.4053 23.3508 88.3668 24.2035L88.9126 21.0278C85.702 20.476 83.5393 17.4158 84.0911 14.2052Z" fill="#FFCC99"/>
<path d="M84.091 14.2051C83.5393 17.4158 85.7019 20.476 88.9125 21.0278L89.4583 17.8521C87.9986 17.6012 87.0158 16.2107 87.2667 14.7509C87.5176 13.2912 88.9082 12.3085 90.3679 12.5593L90.9137 9.38366C87.7031 8.83189 84.6428 10.9945 84.091 14.2051Z" fill="#FFB76E"/>
<path d="M87.2667 14.7509C87.0159 16.2107 87.9986 17.6012 89.4583 17.8521L90.3679 12.5593C88.9082 12.3085 87.5176 13.2912 87.2667 14.7509Z" fill="#FFCC99"/>
</g>
<g clip-path="url(#clip2_1163_598)">
<path d="M95.0005 66.635L91.6487 69.7163L92.5054 70.6482L90.3472 72.6321L89.4905 71.7002L83.02 77.6483L89.2958 84.4752L80.1644 92.8695L73.8886 86.0426L67.4181 91.9907L68.2748 92.9226L66.1166 94.9066L65.2599 93.9747L61.9082 97.0558C65.3781 100.831 71.2503 101.078 75.025 97.6076L94.4488 79.7519C98.2235 76.2819 98.4705 70.4097 95.0005 66.635ZM88.0161 78.7549L86.0321 76.5967L88.1903 74.6128L90.1743 76.771L88.0161 78.7549ZM72.4136 93.0978L70.4296 90.9396L72.5878 88.9556L74.5718 91.1138L72.4136 93.0978Z" fill="#FF926E"/>
<path d="M83.0201 77.6483L89.4905 71.7002L88.3632 70.4739L90.5214 68.49L91.6487 69.7163L95.0005 66.635C91.5306 62.8603 85.6584 62.6133 81.8837 66.0833L76.7376 70.814L83.0201 77.6483ZM84.0503 74.4409L82.0664 72.2827L84.2246 70.2987L86.2085 72.4569L84.0503 74.4409Z" fill="#FFB76E"/>
<path d="M64.1327 92.7483L66.2909 90.7643L67.4182 91.9906L73.8887 86.0425L67.6061 79.2082L62.4599 83.939C60.5729 85.6736 59.5666 88.0096 59.4668 90.3831C59.3676 92.7573 60.1729 95.1681 61.9082 97.0558L65.26 93.9746L64.1327 92.7483ZM68.6221 84.6416L70.6061 86.7998L68.4479 88.7838L66.4639 86.6256L68.6221 84.6416Z" fill="#FFB76E"/>
<path d="M89.2958 84.4751L83.0167 77.6445L73.8853 86.0388L80.1644 92.8693L89.2958 84.4751Z" fill="#D5310E"/>
<path d="M83.0167 77.6445L76.7375 70.814L67.6062 79.2082L73.8853 86.0388L83.0167 77.6445Z" fill="#F46A1A"/>
<path d="M70.6061 86.7998L68.6221 84.6416L66.4639 86.6256L68.4479 88.7838L70.6061 86.7998Z" fill="white"/>
<path d="M74.5718 91.1138L72.5879 88.9556L70.4297 90.9396L72.4136 93.0978L74.5718 91.1138Z" fill="white"/>
<path d="M68.2749 92.9225L66.2909 90.7643L64.1327 92.7483L66.1167 94.9065L68.2749 92.9225Z" fill="white"/>
<path d="M90.1743 76.7709L88.1903 74.6127L86.0321 76.5967L88.0161 78.7549L90.1743 76.7709Z" fill="white"/>
<path d="M86.2085 72.4569L84.2245 70.2987L82.0664 72.2827L84.0503 74.4409L86.2085 72.4569Z" fill="white"/>
<path d="M92.5054 70.6482L90.5214 68.49L88.3632 70.4739L90.3472 72.6321L92.5054 70.6482Z" fill="white"/>
<path d="M109.55 82.4618L99.9097 91.3235L104.208 95.9996L90.5397 108.565L86.2411 103.889L76.4573 112.883C79.9272 116.657 85.7995 116.904 89.5741 113.434L108.998 95.5786C112.773 92.1087 113.02 86.2365 109.55 82.4618Z" fill="#FF926E"/>
<path d="M81.9425 99.2125L95.6111 86.6474L99.9097 91.3235L109.55 82.4618C106.08 78.6871 100.207 78.4401 96.4328 81.9101L77.009 99.7657C75.122 101.5 74.1157 103.836 74.0159 106.21C73.9167 108.584 74.722 110.995 76.4573 112.883L86.2411 103.889L81.9425 99.2125Z" fill="#FFB76E"/>
<path d="M104.208 95.9996L99.9097 91.3235L86.2411 103.889L90.5397 108.565L104.208 95.9996Z" fill="#FFF6D6"/>
<path d="M99.9096 91.3235L95.6111 86.6474L81.9425 99.2125L86.2411 103.889L99.9096 91.3235Z" fill="white"/>
</g>
<defs>
<clipPath id="clip0_1163_598">
<rect width="55.4996" height="55.4996" fill="white" transform="translate(0.400742 25.7498) rotate(-17.0722)"/>
</clipPath>
<clipPath id="clip1_1163_598">
<rect width="49.4075" height="49.4075" fill="white" transform="translate(79.8318 0.940216) rotate(9.75151)"/>
</clipPath>
<clipPath id="clip2_1163_598">
<rect width="44.9503" height="44.9503" fill="white" transform="translate(87.0647 58.0022) rotate(47.4086)"/>
</clipPath>
</defs>
</svg>
